<?xml version="1.0" standalone="no"?><!DOCTYPE svg PUBLIC "-//W3C//DTD SVG 1.1//EN" "http://www.w3.org/Graphics/SVG/1.1/DTD/svg11.dtd"><svg class="icon" width="16px" height="16.00px" viewBox="0 0 1024 1024" version="1.1" xmlns="http://www.w3.org/2000/svg"><path d="M180.6 774.3c-35.9-67.6-4.4-155.1 60.7-189.6s126.9-43.2 191.4-89.1 137.9-165.8 196-176.1c58.2-10.3 122.9 37.9 126.9 103s-63.1 212-162.8 305S289 978.3 180.6 774.3z" fill="#C672DB" /><path d="M775.7 421.3c-2-33.2-17.4-64.5-43.3-88-24.6-22.4-56.6-35.2-87.6-35.2v20-20c-6.6 0-13.2 0.6-19.5 1.7-41.2 7.3-82.1 53.1-125.5 101.6-26.6 29.7-54.1 60.5-78.6 77.9-36.2 25.8-71.5 39.1-108.9 53.2-25.9 9.8-52.7 19.9-80.2 34.5-36 19.1-64.4 53.3-77.8 93.8-6.7 20.2-9.5 40.8-8.3 61.4 1.3 21.8 7 42.5 17.1 61.5 20 37.7 44.5 66.1 72.8 84.5 26.3 17 56 25.7 88.5 25.7 37.3 0 78.4-11.5 122.7-34.1 4.6-2.3 6.6-7.8 4.6-12.6 0-0.1-0.1-0.1-0.1-0.2-2.2-5.3-8.5-7.7-13.6-5.1-37.3 19.1-76.2 31.9-113.6 31.9-54 0-105-26.7-143.7-99.6-35.9-67.6-4.4-155.1 60.7-189.6 65.1-34.6 126.9-43.2 191.4-89.1 64.5-45.9 137.9-165.8 196-176.1 5.3-0.9 10.7-1.4 16-1.4 53.5 0 107.3 45.2 110.9 104.4 4 65.1-63.1 212-162.8 305-27.1 25.3-61.8 55.3-100.3 81.5-4.1 2.8-5.5 8.2-3.2 12.6 0 0.1 0.1 0.1 0.1 0.2 2.7 5.3 9.5 7 14.4 3.7 32.9-22.5 67.3-50.4 102.7-83.4 47.5-44.2 91.7-104 124.4-168.3 30.6-60.2 46.9-115.8 44.7-152.4z" fill="#1A1A1A" /><path d="M593.2 624c43.2-66.3 120.8-178.1 118-282.3 24.7 18.9 42.5 47.7 44.5 80.9 4 65.1-63.1 212-162.8 305-96.6 90.1-291.3 241-401.8 64.8-3.6-5.7 282.4 15.5 402.1-168.4z" fill="#A254B5" /><path d="M724.2 174.8c-6.6 37.3-25.5 129.3-53.3 138-27.9-8-52.8-5-96.7 34.9-16.9 13-25.9 14-33.9 12s53.8 49.8 85.7 37.9c7 26.9 8.3 71.4 18.9 75.4s69.1-30.6 77.1-50.5c7.3 14 8 46.5 27.2 56.5 5.3-10.6 22.6-53.2 18.3-80.7-4.3-27.6-18.3-45.5-39.5-61.5 0 0 28.5-78.3 30.6-104.2 2.1-25.8 3.4-37.3-3.7-47.6-7.1-10.4-20.7-15.3-30.7-10.2z" fill="#85E374" /><path d="M732.9 172.8c8.2 0 16.8 4.6 22 12.2 7.2 10.3 5.8 21.8 3.7 47.6-2.1 25.8-30.6 104.2-30.6 104.2 21.3 15.9 35.2 33.9 39.5 61.5 4.3 27.6-13 70.1-18.3 80.7-19.3-10-19.9-42.5-27.2-56.5-7.5 18.9-60.3 50.8-75 50.8-0.8 0-1.5-0.1-2.1-0.3-10.6-4-12-48.5-18.9-75.4-3.3 1.2-6.9 1.8-10.8 1.8-32.5 0-80.1-39.7-75.3-39.7 0.1 0 0.2 0 0.4 0.1 1.9 0.5 4 0.8 6.1 0.8 6.7 0 15-3 27.8-12.8 31.8-28.9 53.7-38.4 73.9-38.4 7.7 0 15.1 1.4 22.8 3.6 27.8-8.7 46.7-100.7 53.3-138 2.7-1.6 5.7-2.2 8.7-2.2m0-20c-6.3 0-12.3 1.4-17.7 4.1-5.6 2.8-9.6 8.2-10.7 14.4-2.8 15.8-8.7 46.4-17.1 73.9-9 29.5-16.5 41.5-20.3 46.1-6.6-1.4-12.8-2-19-2-13.9 0-27.5 3.4-41.6 10.5-13.8 6.9-28.6 17.6-45.1 32.6-10.3 7.8-14.3 8.2-15 8.2-0.2 0-0.6 0-1.3-0.2-1.7-0.4-3.5-0.7-5.2-0.7-7.3 0-14 3.9-17.6 10.1-3.7 6.4-3.6 14.1 0.2 20.7 6.4 11.1 31.7 26.8 34.6 28.6 19.7 12.1 37.5 18.9 52.9 20.1 0.7 4.5 1.4 9.1 2.1 13.7 1.7 11.1 3.3 21.6 5.5 30.4 1.8 6.9 5.9 23.1 20.3 28.5 2.8 1.1 5.9 1.6 9.1 1.6 15.5 0 38.6-13.5 51-21.6 4.8-3.1 9.9-6.7 15-10.6 4.6 13.7 12.1 27.8 27 35.5 2.9 1.5 6 2.2 9.2 2.2 2.1 0 4.2-0.3 6.2-1 5.1-1.7 9.3-5.3 11.7-10.1 2.9-5.8 9.1-20.1 14.1-37.4 6.3-22 8.4-40.6 6.1-55.4-4.1-26-15.2-46.5-35.7-64.9 8.6-24.5 25.2-74.3 27-96l0.3-3.6c2.1-25.8 3.4-41.3-7.5-57-8.9-12.8-23.7-20.7-38.5-20.7z" fill="#1A1A1A" /><path d="M741.2 215.4c-2.4 27.9-12.2 93.6-34.9 120.4C721.7 385 654 461.9 645 472.9c4.5 1.7 17.5-3.5 31.6-11.5 19.4-11 40.8-27.4 45.5-39 7.3 14 8 46.5 27.2 56.5 5.3-10.6 22.6-53.2 18.3-80.7-4.3-27.6-18.3-45.5-39.5-61.5 0 0 28.5-78.3 30.6-104.2 2.1-25.8 3.4-37.3-3.7-47.6-3.6-5.1-8.7-8.9-14.3-10.8 1.6 7.4 2.8 13.3 0.5 41.3z" fill="#79BF6A" /><path d="M404.9 771c-4.1 0-8-2.6-9.5-6.7-1.8-5.2 1-10.9 6.2-12.7 62.1-21.5 109.6-51 149.6-92.8 3.8-4 10.1-4.1 14.1-0.3s4.1 10.1 0.3 14.1c-42.2 44.2-92.3 75.3-157.5 97.9-1.1 0.3-2.2 0.5-3.2 0.5zM589.8 638.5c-2.1 0-4.2-0.7-6-2-4.4-3.3-5.3-9.6-2-14l3.3-4.5c3.3-4.4 9.5-5.4 14-2.1 4.4 3.3 5.4 9.5 2.1 14-1.1 1.6-2.3 3.1-3.5 4.6-1.9 2.7-4.9 4-7.9 4z" fill="#1A1A1A" /></svg>