<?xml version="1.0" standalone="no"?><!DOCTYPE svg PUBLIC "-//W3C//DTD SVG 1.1//EN" "http://www.w3.org/Graphics/SVG/1.1/DTD/svg11.dtd"><svg class="icon" width="16px" height="16.00px" viewBox="0 0 1024 1024" version="1.1" xmlns="http://www.w3.org/2000/svg"><path d="M133.9 547.7s48.5 42.2 155 45.3c106.5 3.2 198.2-25.3 279.3-32.7 81.2-7.4 250.1 14.2 250.1 14.2s0.8-71.2-30.8-104.9-136-77-294.1-51.7-272 93.4-323.1 116.3c-29.9 9.8-36.4 13.5-36.4 13.5z" fill="#A5DC69" /><path d="M585.5 410.4c106.5 0 176.9 32.6 201.9 59.2 31.6 33.7 30.8 104.9 30.8 104.9S695 558.8 608.5 558.8c-14.8 0-28.5 0.5-40.3 1.5-76.9 7-163.3 32.9-262.8 32.9-5.5 0-11-0.1-16.6-0.2-106.5-3.2-155-45.3-155-45.3s6.6-3.7 36.4-13.4c51.1-22.9 165-91 323.1-116.3 33.2-5.3 64-7.6 92.2-7.6m0-18c-30.6 0-62.6 2.6-95 7.8C358 421.4 256.3 471.9 195.6 502c-12.4 6.2-23.2 11.5-31.8 15.4-28.4 9.3-36.8 13.4-38.7 14.5-5.1 2.9-8.5 8-9.1 13.9-0.6 5.8 1.7 11.6 6.1 15.4 2.2 1.9 54.6 46.4 166.2 49.7 5.6 0.2 11.4 0.3 17.1 0.3 63.3 0 122.1-10.4 174-19.5 31.9-5.6 61.9-10.9 90.4-13.5 10.7-1 23.7-1.5 38.7-1.5 84.4 0 206.3 15.5 207.5 15.6 0.8 0.1 1.5 0.1 2.3 0.1 4.3 0 8.5-1.6 11.8-4.4 3.9-3.4 6.1-8.2 6.2-13.4 0-0.8 0.2-19.7-3.8-43-5.6-32.7-16.3-57.8-31.9-74.4-16-17.1-43.7-32.9-77.8-44.4-39.9-13.3-87.4-20.4-137.3-20.4z" fill="#1A1A1A" /><path d="M133.9 547.7s48.5 42.2 155 45.3c106.5 3.2 198.2-25.3 279.3-32.7 81.2-7.4 250.1 14.2 250.1 14.2S807 561 780.1 546c-26.9-15-93.1-42-251.2-16.7-210.5 47.9-395 18.4-395 18.4z" fill="#6AAF4E" /><path d="M239.3 314.7s110.2-17.9 201.1 50.6 183.6 169 301.7 233c110.5 59.9 191.9 78 191.9 78s-102.3 148.6-280.4 40.1-239.3-160.3-313.1-236.2-101.2-165.5-101.2-165.5z" fill="#46C373" /><path d="M273 312.6c39.7 0 107.7 7.7 167.4 52.7 90.9 68.5 183.6 169 301.7 233 110.5 59.9 191.9 78 191.9 78S879.1 756 779.7 756c-36.3 0-78.5-10.6-126.2-39.7-178.1-108.6-239.2-160.2-313-236.1S239.3 314.7 239.3 314.7s13-2.1 33.7-2.1m0-18v18-18c-22 0-36.1 2.3-36.7 2.3-5.1 0.8-9.7 3.8-12.4 8.3-2.7 4.4-3.4 9.8-1.9 14.8 0.3 1 7.5 24.2 24.1 57.1 15.2 30.2 41.7 74.8 81.4 115.7 75.9 78 139.6 131.1 316.6 239 46.1 28.1 91.7 42.3 135.5 42.3 24.9 0 49.3-4.6 72.6-13.7 18.5-7.2 36.2-17.3 52.7-29.9 28.1-21.4 43.1-43.1 43.8-44 3.4-4.9 4.1-11.2 1.9-16.8-2.2-5.6-7-9.7-12.8-11-0.8-0.2-80.5-18.5-187.2-76.3-76-41.2-141-97.6-203.8-152.1-33-28.6-64.1-55.7-95.7-79.4-28.4-21.4-61.2-36.9-97.5-46.3-25.9-6.6-53-10-80.6-10z" fill="#1A1A1A" /><path d="M239.3 314.7s110.2-17.9 201.1 50.6 183.6 169 301.7 233c110.5 59.9 191.9 78 191.9 78s-44.1 42.5-222.2-66.1-229.9-167.5-303.7-243.4c-47.3-48.6-168.8-52.1-168.8-52.1z" fill="#3D9950" /><path d="M449 450.9m-45.6 0a45.6 45.6 0 1 0 91.2 0 45.6 45.6 0 1 0-91.2 0Z" fill="#3D9950" /><path d="M434.6 421m-41.5 0a41.5 41.5 0 1 0 83 0 41.5 41.5 0 1 0-83 0Z" fill="#D7FA91" /><path d="M434.6 379.5c22.9 0 41.5 18.6 41.5 41.5s-18.6 41.5-41.5 41.5-41.5-18.5-41.5-41.5 18.5-41.5 41.5-41.5m0-18c-32.8 0-59.5 26.7-59.5 59.5s26.7 59.5 59.5 59.5 59.5-26.7 59.5-59.5-26.7-59.5-59.5-59.5z" fill="#1A1A1A" /><path d="M495.4 541.2a45.6 45.5 0 1 0 91.2 0 45.6 45.5 0 1 0-91.2 0Z" fill="#3D9950" /><path d="M650.2 618.6m-45.6 0a45.6 45.6 0 1 0 91.2 0 45.6 45.6 0 1 0-91.2 0Z" fill="#3D9950" /><path d="M766.8 685.6m-45.6 0a45.6 45.6 0 1 0 91.2 0 45.6 45.6 0 1 0-91.2 0Z" fill="#3D9950" /><path d="M528.9 511.3m-41.5 0a41.5 41.5 0 1 0 83 0 41.5 41.5 0 1 0-83 0Z" fill="#D7FA91" /><path d="M528.9 469.8c22.9 0 41.5 18.6 41.5 41.5s-18.6 41.5-41.5 41.5-41.5-18.6-41.5-41.5 18.6-41.5 41.5-41.5m0-18c-32.8 0-59.5 26.7-59.5 59.5s26.7 59.5 59.5 59.5 59.5-26.7 59.5-59.5-26.7-59.5-59.5-59.5z" fill="#1A1A1A" /><path d="M637.4 587.5m-41.5 0a41.5 41.5 0 1 0 83 0 41.5 41.5 0 1 0-83 0Z" fill="#D7FA91" /><path d="M637.4 546c22.9 0 41.5 18.6 41.5 41.5S660.3 629 637.4 629s-41.5-18.6-41.5-41.5 18.5-41.5 41.5-41.5m0-18c-32.8 0-59.5 26.7-59.5 59.5s26.7 59.5 59.5 59.5 59.5-26.7 59.5-59.5-26.7-59.5-59.5-59.5z" fill="#1A1A1A" /><path d="M749.3 660.1m-41.5 0a41.5 41.5 0 1 0 83 0 41.5 41.5 0 1 0-83 0Z" fill="#D7FA91" /><path d="M749.3 618.6c22.9 0 41.5 18.6 41.5 41.5s-18.6 41.5-41.5 41.5-41.5-18.6-41.5-41.5 18.6-41.5 41.5-41.5m0-18c-32.8 0-59.5 26.7-59.5 59.5s26.7 59.5 59.5 59.5 59.5-26.7 59.5-59.5-26.7-59.5-59.5-59.5z" fill="#1A1A1A" /><path d="M130.6 609l-12.8-12.6-0.2 0.2c0.1-0.1 10.5-12.7-1.6-44.4-13.3-34.7-37-48.5-37.2-48.6-4.3-2.4-5.8-7.9-3.4-12.2 2.4-4.3 7.9-5.9 12.2-3.5 1.2 0.7 29.4 16.7 45.2 57.9 16.3 42.6-0.3 61.2-2.2 63.2z" fill="#1A1A1A" /></svg>