<?xml version="1.0" standalone="no"?><!DOCTYPE svg PUBLIC "-//W3C//DTD SVG 1.1//EN" "http://www.w3.org/Graphics/SVG/1.1/DTD/svg11.dtd"><svg class="icon" width="16px" height="16.00px" viewBox="0 0 1024 1024" version="1.1" xmlns="http://www.w3.org/2000/svg"><path d="M421.3 882.3S310.4 786 337.2 529.5s227.7-376.1 227.7-376.1-7.5 40-4.2 96.3c5.8 100.1 27.8 230.5 58.2 344.9 30.4 114.4 59.9 250.8 59.9 250.8l-257.5 36.9z" fill="#E2CA7F" /><path d="M564.9 153.4s-7.5 40-4.2 96.3c5.8 100.1 27.8 230.5 58.2 344.9 30.4 114.4 59.9 250.8 59.9 250.8l-257.4 36.9S310.5 786 337.3 529.5C364 272.9 564.9 153.4 564.9 153.4m0-20c-3.5 0-7.1 0.9-10.2 2.8-2.2 1.3-53.7 32.3-108.7 95.9-32.3 37.3-59.2 78.3-79.9 121.7-26 54.4-42.4 112.7-48.7 173.5-6.3 60.2-5.6 116.8 2 168.3 6.1 41.6 16.8 80.1 31.6 114.3 25.9 59.6 56 86.2 57.3 87.3 3.7 3.2 8.3 4.9 13.1 4.9 0.9 0 1.9-0.1 2.8-0.2L681.6 865c5.5-0.8 10.4-3.8 13.6-8.4 3.2-4.6 4.3-10.2 3.1-15.6-0.3-1.4-29.9-138.2-60.1-251.7-29.8-112.1-51.8-242.7-57.6-340.9-3.1-52.9 3.9-91.1 3.9-91.4 1.4-7.7-1.8-15.6-8.2-20.1-3.4-2.2-7.4-3.5-11.4-3.5z m0 40z" fill="#1A1A1A" /><path d="M524.5 498.6C505.9 298.7 565 153.4 565 153.4s-7.5 40-4.2 96.3c5.8 100.1 27.8 230.5 58.2 344.9 30.4 114.4 59.9 250.8 59.9 250.8l-65.1 9.3c-0.2 0-70.7-156.2-89.3-356.1z" fill="#CCAA4E" /><path d="M501.2 696.6c-2 0-4.1-0.6-5.9-1.9-70.4-51.5-134.8-84.4-191.2-97.9-5.4-1.3-8.7-6.7-7.4-12 1.3-5.4 6.7-8.7 12-7.4 59 14.1 125.8 48.1 198.4 101.2 4.5 3.3 5.4 9.5 2.2 14-2 2.6-5 4-8.1 4zM678.8 855.4c-2.7 0-5.5-1.1-7.4-3.3-0.6-0.7-64-70.7-149.8-137.7-4.4-3.4-5.1-9.7-1.7-14s9.7-5.1 14-1.7c87.3 68.1 151.8 139.3 152.4 140 3.7 4.1 3.4 10.4-0.7 14.1-2.1 1.8-4.5 2.6-6.8 2.6z" fill="#1A1A1A" /><path d="M479.2 680.6c-1.7 0-3.4-0.4-5-1.3-4.8-2.7-6.5-8.8-3.7-13.6 3.6-6.2 87.9-152.8 161.6-191.8 4.9-2.6 10.9-0.7 13.5 4.2 2.6 4.9 0.7 10.9-4.2 13.5-68.5 36.3-152.7 182.6-153.6 184.1-1.8 3.1-5.2 4.9-8.6 4.9z" fill="#1A1A1A" /><path d="M563.7 558.1c-3.1 0-6.2-1.4-8.1-4.1-1-1.4-103.8-142.1-212.5-178.7-5.2-1.8-8-7.4-6.3-12.7 1.8-5.2 7.4-8 12.7-6.3 48.4 16.3 100.5 52.6 155 107.9 40.3 40.9 66.2 76.5 67.3 78 3.2 4.5 2.2 10.7-2.2 14-1.8 1.3-3.9 1.9-5.9 1.9z" fill="#1A1A1A" /><path d="M474.8 447c-1.8 0-3.6-0.5-5.2-1.5-4.7-2.9-6.2-9-3.3-13.7 2.4-3.9 58.6-95.3 120.1-121.6 5.1-2.2 11 0.2 13.1 5.3 2.2 5.1-0.2 11-5.3 13.1-55.7 23.9-110.3 112.8-110.9 113.6-1.9 3.1-5.1 4.8-8.5 4.8z" fill="#1A1A1A" /><path d="M542.8 361.6c-4.2 0-8.1-2.7-9.5-6.9-0.4-1.1-28.3-84.8-93.5-124.6-4.7-2.9-6.2-9-3.3-13.7 2.9-4.7 9-6.2 13.7-3.3 71.8 43.7 100.9 131.8 102.1 135.5 1.7 5.3-1.2 10.9-6.4 12.6-1.1 0.3-2.1 0.4-3.1 0.4z" fill="#1A1A1A" /></svg>